# File created by Blade
# Date/Time:  Tue Jan 27 19:14:06 2015
# Frame Rate: 120.000 fps
#------------------------------------------------------
:FULLY-SPECIFIED
:DEGREES
4225
root 3.568582 32.389596 0.813516 -5.321950 -0.407765 0.444012
Spine 0.209989 0.606623 -1.951795
Head 16.900147 -23.073134 -4.678187
LeftShoulder -6.750057 -6.555149 23.234731
LeftArm -6.865750 37.373230 -104.631497
LeftForeArm 3.420439 -0.000000 11.216659
LeftHand 9.654288 -0.000000 -6.276427
LeftHandThumb1 -26.253704 0.000000 33.147579
RightShoulder -16.226982 9.737390 -56.839632
RightArm 80.676540 71.046919 93.240258
RightForeArm 25.089768 -0.000000 114.269707
RightHand 31.708381 -0.000000 -18.627724
RightHandThumb1 -24.326973 -0.000000 -32.862282
LeftUpLeg 11.876288 0.173979 0.161191
LeftLeg 2.450801 -0.000000 -0.000000
LeftFoot -16.834774 10.682992 -22.826133
LeftToeBase 17.857942 -0.000000 -0.000000
RightUpLeg 9.803126 -0.105305 4.226958
RightLeg 2.389414 -0.000000 -0.000000
RightFoot -12.423427 -12.874731 12.710846
RightToeBase 11.960075 -0.000000 -0.000000
4226
root 3.562524 32.390093 0.811270 -5.309551 -0.494041 0.431797
Spine 0.207863 0.564952 -1.977444
Head 16.924497 -23.027965 -4.626049
LeftShoulder -6.766241 -6.513638 23.280556
LeftArm -6.826625 37.303641 -104.611868
LeftForeArm 3.419989 -0.000000 11.214294
LeftHand 9.671526 0.000000 -6.299240
LeftHandThumb1 -26.253704 0.000000 33.147579
RightShoulder -16.217233 9.618657 -56.837833
RightArm 80.195357 71.249477 92.790482
RightForeArm 25.120861 -0.000000 114.287206
RightHand 31.688084 -0.000000 -18.501869
RightHandThumb1 -24.326973 -0.000000 -32.862282
LeftUpLeg 11.870115 0.307752 0.205259
LeftLeg 2.452897 -0.000000 -0.000000
LeftFoot -16.899938 10.602042 -22.994295
LeftToeBase 18.110229 -0.000000 -0.000000
RightUpLeg 9.772454 -0.021665 4.255316
RightLeg 2.404188 -0.000000 -0.000000
RightFoot -12.411196 -12.855750 12.746066
RightToeBase 11.959451 -0.000000 -0.000000
4227
root 3.557149 32.390763 0.808220 -5.298900 -0.574013 0.427838
Spine 0.210686 0.503858 -2.008685
Head 16.962943 -22.984927 -4.609338
LeftShoulder -6.776264 -6.524633 23.308355
LeftArm -6.855733 37.214571 -104.611464
LeftForeArm 3.501683 0.000000 11.217343
LeftHand 9.737921 -0.000000 -5.915184
LeftHandThumb1 -26.253704 0.000000 33.147579
RightShoulder -16.247760 9.556125 -56.827711
RightArm 79.644788 71.400141 92.234931
RightForeArm 25.276732 0.000000 114.252564
RightHand 31.851175 -0.000000 -18.044451
RightHandThumb1 -24.326973 -0.000000 -32.862282
LeftUpLeg 11.856187 0.368889 0.220532
LeftLeg 2.473652 -0.000000 -0.000000
LeftFoot -16.922411 10.632083 -22.996755
LeftToeBase 18.177071 -0.000000 -0.000000
RightUpLeg 9.741745 0.037124 4.266472
RightLeg 2.423098 -0.000000 -0.000000
RightFoot -12.400353 -12.818865 12.707670
RightToeBase 12.043545 -0.000000 -0.000000
4228
root 3.551249 32.391457 0.804944 -5.282467 -0.663491 0.415681
Spine 0.205685 0.456721 -2.027297
Head 17.017734 -22.951950 -4.594610
LeftShoulder -6.783225 -6.482368 23.336402
LeftArm -6.826900 37.144403 -104.583001
LeftForeArm 3.486101 -0.000000 11.246440
LeftHand 9.706242 -0.000000 -6.328040
LeftHandThumb1 -26.253704 0.000000 33.147579
RightShoulder -16.317171 9.533574 -56.844264
RightArm 78.485757 71.469377 91.047955
RightForeArm 24.883828 0.000000 114.290462
RightHand 31.544693 0.000000 -18.933422
RightHandThumb1 -24.326973 -0.000000 -32.862282
LeftUpLeg 11.840564 0.450672 0.250889
LeftLeg 2.490994 -0.000000 -0.000000
LeftFoot -16.925740 10.604554 -23.031079
LeftToeBase 18.107676 -0.000000 -0.000000
RightUpLeg 9.702260 0.078371 4.285821
RightLeg 2.439577 -0.000000 -0.000000
RightFoot -12.365381 -12.763879 12.692400
RightToeBase 12.074791 -0.000000 -0.000000
4229
root 3.544892 32.391482 0.802275 -5.274230 -0.753086 0.401149
Spine 0.213054 0.395552 -2.044948
Head 17.071586 -22.930477 -4.585230
LeftShoulder -6.786588 -6.456985 23.355607
LeftArm -6.834304 37.111159 -104.561978
LeftForeArm 3.502756 -0.000000 11.295766
LeftHand 9.646555 -0.000000 -6.294509
LeftHandThumb1 -26.253704 0.000000 33.147579
RightShoulder -16.352979 9.442923 -56.841284
RightArm 77.992347 71.623066 90.572588
RightForeArm 25.146133 -0.000000 114.276830
RightHand 31.613681 -0.000000 -18.478895
RightHandThumb1 -24.326973 -0.000000 -32.862282
LeftUpLeg 11.834994 0.528368 0.283714
LeftLeg 2.505069 -0.000000 -0.000000
LeftFoot -16.952959 10.612631 -23.035134
LeftToeBase 18.125160 -0.000000 -0.000000
RightUpLeg 9.671470 0.072021 4.301007
RightLeg 2.457587 -0.000000 -0.000000
RightFoot -12.333844 -12.675493 12.685780
RightToeBase 12.056536 -0.000000 -0.000000
4230
root 3.538640 32.391062 0.798731 -5.266171 -0.854017 0.389540
Spine 0.229560 0.341407 -2.064042
Head 17.112827 -22.874415 -4.575404
LeftShoulder -6.788952 -6.473206 23.373595
LeftArm -6.887543 37.137710 -104.571417
LeftForeArm 3.442399 0.000000 11.325817
LeftHand 9.662897 -0.000000 -6.211661
LeftHandThumb1 -26.253704 0.000000 33.147579
RightShoulder -16.398724 9.286820 -56.844985
RightArm 77.486029 71.788903 90.079250
RightForeArm 25.161599 -0.000000 114.286993
RightHand 31.604335 -0.000000 -18.474709
RightHandThumb1 -24.326973 -0.000000 -32.862282
LeftUpLeg 11.823956 0.572725 0.298970
LeftLeg 2.538172 -0.000000 -0.000000
LeftFoot -16.919739 10.699140 -22.859356
LeftToeBase 17.847577 -0.000000 -0.000000
RightUpLeg 9.635427 0.089124 4.316851
RightLeg 2.484995 -0.000000 -0.000000
RightFoot -12.317341 -12.593162 12.655857
RightToeBase 12.067683 -0.000000 -0.000000
4231
root 3.530920 32.390439 0.796556 -5.264966 -0.958272 0.369257
Spine 0.252577 0.286119 -2.080503
Head 17.145021 -22.805363 -4.546536
LeftShoulder -6.795706 -6.467410 23.398152
LeftArm -6.909256 37.195965 -104.571316
LeftForeArm 3.472423 -0.000000 11.341543
LeftHand 9.729157 -0.000000 -5.735488
LeftHandThumb1 -26.253704 0.000000 33.147579
RightShoulder -16.407935 9.093941 -56.843520
RightArm 76.963937 72.041017 89.597214
RightForeArm 25.211382 -0.000000 114.323354
RightHand 31.590568 -0.000000 -18.499092
RightHandThumb1 -24.326973 -0.000000 -32.862282
LeftUpLeg 11.818742 0.609811 0.328250
LeftLeg 2.576196 -0.000000 -0.000000
LeftFoot -16.976590 10.732589 -22.893030
LeftToeBase 17.819500 -0.000000 -0.000000
RightUpLeg 9.607424 0.113984 4.349935
RightLeg 2.513632 -0.000000 -0.000000
RightFoot -12.295473 -12.551243 12.651533
RightToeBase 12.035408 -0.000000 -0.000000
4232
root 3.525326 32.389933 0.792425 -5.256636 -1.074165 0.366152
Spine 0.268497 0.240361 -2.116704
Head 17.182395 -22.746674 -4.514737
LeftShoulder -6.806617 -6.483664 23.429798
LeftArm -6.952717 37.225464 -104.586399
LeftForeArm 3.479432 0.000000 11.370262
LeftHand 9.672360 -0.000000 -5.700816
LeftHandThumb1 -26.253704 0.000000 33.147579
RightShoulder -16.424684 8.901644 -56.828380
RightArm 76.442003 72.283015 89.060520
RightForeArm 25.238009 -0.000000 114.338315
RightHand 31.732513 -0.000000 -18.598056
RightHandThumb1 -24.326973 -0.000000 -32.862282
LeftUpLeg 11.807606 0.653765 0.334827
LeftLeg 2.602760 -0.000000 -0.000000
LeftFoot -17.024819 10.791791 -22.919847
LeftToeBase 17.824939 -0.000000 -0.000000
RightUpLeg 9.572585 0.170143 4.360454
RightLeg 2.532929 -0.000000 -0.000000
RightFoot -12.265185 -12.495441 12.580529
RightToeBase 12.093253 -0.000000 -0.000000
4233
root 3.517917 32.389336 0.789109 -5.252595 -1.192496 0.351849
Spine 0.285442 0.201361 -2.139917
Head 17.216275 -22.712234 -4.490719
LeftShoulder -6.826393 -6.443717 23.450503
LeftArm -6.907255 37.281087 -104.547505
LeftForeArm 3.472705 -0.000000 11.358541
LeftHand 9.666678 -0.000000 -5.863783
LeftHandThumb1 -26.253704 0.000000 33.147579
RightShoulder -16.433594 8.719177 -56.808065
RightArm 75.730579 72.574323 88.313207
RightForeArm 25.227998 -0.000000 114.366071
RightHand 31.707139 -0.000000 -18.749637
RightHandThumb1 -24.326973 -0.000000 -32.862282
LeftUpLeg 11.797207 0.689613 0.355081
LeftLeg 2.646437 -0.000000 -0.000000
LeftFoot -17.089850 10.829087 -22.984772
LeftToeBase 17.811471 -0.000000 -0.000000
RightUpLeg 9.538471 0.249487 4.393378
RightLeg 2.563632 -0.000000 -0.000000
RightFoot -12.268400 -12.469297 12.574103
RightToeBase 12.165408 -0.000000 -0.000000
4234
root 3.510087 32.389653 0.783887 -5.247597 -1.310764 0.341038
Spine 0.298395 0.177375 -2.179977
Head 17.298014 -22.714739 -4.465224
LeftShoulder -6.801325 -6.408738 23.472891
LeftArm -6.859990 37.346714 -104.508998
LeftForeArm 3.505237 -0.000000 11.343314
LeftHand 9.704239 0.000000 -6.056273
LeftHandThumb1 -26.253704 0.000000 33.147579
RightShoulder -16.405533 8.534217 -56.733633
RightArm 74.939599 72.937107 87.415288
RightForeArm 25.139111 -0.000000 114.379542
RightHand 31.667473 0.000000 -18.844365
RightHandThumb1 -24.326973 -0.000000 -32.862282
LeftUpLeg 11.777058 0.712919 0.373032
LeftLeg 2.693368 -0.000000 -0.000000
LeftFoot -17.233905 10.857842 -23.199652
LeftToeBase 18.119274 -0.000000 -0.000000
RightUpLeg 9.500018 0.317226 4.421746
RightLeg 2.591310 -0.000000 -0.000000
RightFoot -12.233033 -12.450364 12.520837
RightToeBase 12.125073 -0.000000 -0.000000
4235
root 3.503510 32.389978 0.779802 -5.246469 -1.435894 0.327871
Spine 0.336871 0.158113 -2.204208
Head 17.314367 -22.713355 -4.452743
LeftShoulder -6.823791 -6.399484 23.494267
LeftArm -6.828020 37.460277 -104.493379
LeftForeArm 3.477132 -0.000000 11.310091
LeftHand 9.648829 -0.000000 -6.002653
LeftHandThumb1 -26.253704 0.000000 33.147579
RightShoulder -16.435879 8.442092 -56.687505
RightArm 73.800696 73.269370 86.149478
RightForeArm 24.968322 -0.000000 114.372825
RightHand 31.700877 -0.000000 -18.940634
RightHandThumb1 -24.326973 -0.000000 -32.862282
LeftUpLeg 11.765819 0.741934 0.384893
LeftLeg 2.746802 -0.000000 -0.000000
LeftFoot -17.212873 10.958375 -23.068659
LeftToeBase 17.832261 -0.000000 -0.000000
RightUpLeg 9.454712 0.362019 4.445077
RightLeg 2.643637 -0.000000 -0.000000
RightFoot -12.228945 -12.388184 12.530322
RightToeBase 12.140833 -0.000000 -0.000000
